<?xml version="1.0" encoding="UTF-8"?>
<svg width="800px" height="600px" viewBox="0 0 800 600" version="1.1" xmlns="http://www.w3.org/2000/svg" xmlns:xlink="http://www.w3.org/1999/xlink">
    <!-- Generator: Sketch 42 (36781) - http://www.bohemiancoding.com/sketch -->
    <title>Standard mått för illustrationer Copy 17</title>
    <desc>Created with Sketch.</desc>
    <defs></defs>
    <g id="Page-1" stroke="none" stroke-width="1" fill="none" fill-rule="evenodd">
        <g id="Standard-mått-för-illustrationer-Copy-17">
            <path d="M193,27.6830812 C193,27.6830812 263.411364,26.1850403 293.354338,26.6025426 C302.953567,26.736387 306.815764,27.679603 307.065218,27.6830812 C307.59389,27.6904527 307.065218,27.6830812 307.065218,27.6830812 C342.927708,31.486794 372,74.6464582 372,124.070418 L372,600.886719 L193,600.886719 L193,27.6830812 Z" id="Rectangle-2" fill="#EDD8BB"></path>
            <rect id="Rectangle" fill="#EDD8BB" x="0" y="27" width="294" height="573" rx="8"></rect>
            <rect id="Rectangle-3" fill="#FFFFFF" x="193" y="366" width="40" height="234"></rect>
            <ellipse id="Oval-Copy" fill="#000000" opacity="0.276494565" cx="89" cy="373" rx="175" ry="175"></ellipse>
            <ellipse id="Oval" fill="#ECD7BA" cx="78" cy="349" rx="175" ry="192"></ellipse>
            <ellipse id="Oval-2" fill="#FFBDBD" cx="78" cy="396.5" rx="48" ry="47.5"></ellipse>
            <circle id="Oval-3" fill="#F99191" cx="78.5" cy="396.5" r="17.5"></circle>
            <path d="M149.56791,343.053677 C114.497054,341.167309 123.3926,306.022373 145.010374,300.42803 C155.321293,297.759724 158.446887,308.525629 169.439501,306.37025 C181.678668,303.970452 201.993024,294.366581 208.91675,311.065337 C212.100222,318.743288 206.297203,326.84092 207.529009,334.708892 C208.198818,338.987197 212.186305,342.571544 208.843389,347.360563 C207.81626,348.832014 205.43098,348.663846 203.637833,348.733021 C199.269453,348.90154 194.621056,346.499758 190.539884,348.066661 C183.082414,350.92984 181.419848,363.102764 170.851695,358.841519 C168.132364,357.745042 167.784167,353.708676 165.520815,351.844739 C162.021579,348.963015 157.746614,347.180218 153.859514,344.847958 L149.56791,343.053677 Z" id="Path-2" fill="#FF001F" opacity="0.0832201087"></path>
            <circle id="Oval-3-Copy" fill="#D0011B" opacity="0.422044837" cx="163.5" cy="316.5" r="2.5"></circle>
            <circle id="Oval-3-Copy-12" fill="#D0011B" opacity="0.422044837" cx="152.5" cy="309.5" r="2.5"></circle>
            <circle id="Oval-3-Copy-2" fill="#D0011B" opacity="0.422044837" cx="137.5" cy="316.5" r="2.5"></circle>
            <circle id="Oval-3-Copy-3" fill="#D0011B" opacity="0.422044837" cx="152.5" cy="323.5" r="2.5"></circle>
            <circle id="Oval-3-Copy-4" fill="#D0011B" opacity="0.422044837" cx="181.5" cy="311.5" r="2.5"></circle>
            <circle id="Oval-3-Copy-7" fill="#D0011B" opacity="0.422044837" cx="176.5" cy="337.5" r="2.5"></circle>
            <circle id="Oval-3-Copy-15" fill="#D0011B" opacity="0.422044837" cx="168.5" cy="329.5" r="2.5"></circle>
            <circle id="Oval-3-Copy-10" fill="#D0011B" opacity="0.422044837" cx="187.5" cy="327.5" r="2.5"></circle>
            <circle id="Oval-3-Copy-14" fill="#D0011B" opacity="0.422044837" cx="200.5" cy="332.5" r="2.5"></circle>
            <circle id="Oval-3-Copy-13" fill="#D0011B" opacity="0.422044837" cx="195.5" cy="316.5" r="2.5"></circle>
            <circle id="Oval-3-Copy-11" fill="#D0011B" opacity="0.422044837" cx="189.5" cy="340.5" r="2.5"></circle>
            <circle id="Oval-3-Copy-16" fill="#D0011B" opacity="0.422044837" cx="177.5" cy="347.5" r="2.5"></circle>
            <circle id="Oval-3-Copy-8" fill="#D0011B" opacity="0.422044837" cx="176.5" cy="321.5" r="2.5"></circle>
            <circle id="Oval-3-Copy-9" fill="#D0011B" opacity="0.422044837" cx="163.5" cy="342.5" r="2.5"></circle>
            <circle id="Oval-3-Copy-5" fill="#D0011B" opacity="0.422044837" cx="154.5" cy="334.5" r="2.5"></circle>
            <circle id="Oval-3-Copy-6" fill="#D0011B" opacity="0.422044837" cx="139.5" cy="329.5" r="2.5"></circle>
        </g>
    </g>
</svg>